# xmcd
#
# Track frame offsets: 
#        150
#        11382
#        23012
#        34867
#        49560
#        64192
#        82957
#        95762
#        109945
#
# Disc length: 1892 seconds
#
# Revision: 1
# Processed by: cddbd v1.5.2PL0 Copyright (c) Steve Scherf et al.
# Submitted via: ExactAudioCopyFreeDBPlugin 1.0
#
DISCID=66076209
DTITLE=Irma Thomas - Soul Queen of New Orleans ("Real New Orleans Soul
DTITLE=")
DYEAR=1989
DGENRE=Soul
TTITLE0=Breakaway
TTITLE1=Ruler of My Heart
TTITLE2=Hittin' on Nothin'
TTITLE3=Hip Shakin' Mama
TTITLE4=For the Good Times
TTITLE5=Don't Blame Him
TTITLE6=Friendly
TTITLE7=It's Raining
TTITLE8=Wish Someone Would Care
EXTD=
EXTT0=
EXTT1=
EXTT2=
EXTT3=
EXTT4=
EXTT5=
EXTT6=
EXTT7=
EXTT8=
PLAYORDER=
